<?xml version="1.0" standalone="no"?>
<!DOCTYPE svg PUBLIC "-//W3C//DTD SVG 20010904//EN"
 "http://www.w3.org/TR/2001/REC-SVG-20010904/DTD/svg10.dtd">
<svg version="1.0" xmlns="http://www.w3.org/2000/svg"
 width="720.000000pt" height="695.000000pt" viewBox="0 0 720.000000 695.000000"
 preserveAspectRatio="xMidYMid meet">

<g transform="translate(0.000000,695.000000) scale(0.100000,-0.100000)"
fill="#000000" stroke="none">
<path d="M2502 4245 l-223 -235 -547 0 -546 0 34 -29 c19 -16 178 -146 352
-288 174 -142 317 -263 318 -269 0 -6 -26 -49 -58 -95 -32 -46 -159 -230 -282
-409 -123 -179 -254 -369 -292 -423 -37 -54 -68 -100 -68 -102 0 -2 55 31 123
74 67 43 310 198 539 345 230 146 422 266 427 266 5 0 107 -41 226 -90 120
-50 219 -89 221 -87 2 2 -36 41 -84 88 -48 46 -135 131 -194 188 l-106 103
-139 -88 c-76 -48 -147 -94 -158 -101 -86 -59 -361 -230 -364 -227 -3 3 86
133 347 509 39 57 72 110 71 117 0 7 -94 90 -209 183 -116 94 -210 172 -210
175 0 3 148 4 329 2 l330 -3 37 58 c20 31 100 161 178 288 78 126 150 242 160
258 10 15 17 27 15 27 -2 0 -104 -106 -227 -235z"/>
<path d="M3605 4419 c-38 -11 -94 -27 -123 -35 -46 -13 -57 -21 -88 -68 -26
-39 -43 -55 -65 -60 -30 -6 -41 -36 -13 -36 18 0 27 16 -110 -204 -47 -77 -86
-146 -86 -153 0 -19 209 -18 235 1 11 8 67 90 125 182 l105 169 40 3 c62 4 85
11 85 27 0 11 -12 15 -45 15 -25 0 -45 2 -45 5 0 3 23 42 50 86 28 44 50 82
50 85 0 9 -48 2 -115 -17z"/>
<path d="M2725 4246 c-36 -16 -51 -32 -99 -112 -55 -91 -51 -94 108 -94 73 0
135 -3 139 -6 8 -9 -26 -74 -58 -113 -17 -19 -36 -31 -51 -31 -29 0 -30 16 -4
50 11 14 20 33 20 43 0 15 -12 17 -114 17 l-114 0 -27 -31 c-32 -39 -66 -104
-58 -113 4 -3 118 -6 255 -6 192 0 256 3 283 14 34 15 81 70 117 139 32 64 26
67 -122 67 -106 0 -132 3 -136 15 -3 8 11 40 33 72 29 44 45 59 66 61 33 4 34
-9 6 -54 -11 -19 -18 -38 -14 -44 7 -11 202 -14 229 -4 21 8 89 121 81 134
-10 16 -503 12 -540 -4z"/>
<path d="M3805 4248 c-66 -23 -141 -106 -117 -130 5 -5 58 -7 117 -6 l109 3
34 45 c36 48 75 71 92 54 7 -7 -2 -30 -29 -71 -46 -71 -52 -73 -218 -73 -138
0 -158 -8 -207 -87 -44 -70 -47 -109 -10 -123 27 -11 454 -14 492 -4 15 5 51
53 118 160 78 125 95 160 92 186 -5 53 -27 58 -248 57 -108 0 -208 -5 -225
-11z m120 -218 c10 -16 -54 -120 -81 -132 -12 -6 -30 -8 -39 -4 -14 5 -13 11
7 47 44 79 95 119 113 89z"/>
<path d="M4403 4243 c-27 -24 -233 -358 -233 -378 0 -12 17 -15 106 -15 58 0
114 4 124 10 10 5 62 81 116 167 114 186 120 193 151 193 32 0 29 -15 -17 -88
-22 -34 -40 -69 -40 -77 0 -12 21 -15 113 -15 100 0 116 2 131 19 28 31 116
174 116 188 0 10 -57 13 -274 13 -247 0 -276 -2 -293 -17z"/>
<path d="M4574 3982 c-6 -4 -45 -61 -86 -127 -41 -66 -117 -187 -168 -269 -51
-82 -93 -156 -94 -165 -1 -14 15 -16 102 -19 56 -1 110 2 121 7 10 6 59 75
108 153 219 349 253 404 253 416 0 13 -216 18 -236 4z"/>
<path d="M4877 3958 c-45 -61 -63 -98 -50 -106 6 -4 61 -6 123 -4 l111 3 35
54 c53 84 53 85 -80 85 l-115 0 -24 -32z"/>
<path d="M5319 3956 c-124 -33 -147 -47 -181 -108 -15 -25 -29 -38 -43 -38
-21 0 -45 -17 -45 -32 0 -4 7 -8 15 -8 22 0 20 -6 -27 -79 -114 -180 -168
-273 -163 -282 4 -5 55 -9 114 -9 96 0 110 2 127 21 10 11 64 93 120 182 l101
162 54 5 c30 3 60 9 67 13 22 15 2 27 -44 27 -24 0 -44 2 -44 4 0 5 61 105 83
136 35 49 26 50 -134 6z"/>
<path d="M2534 3791 c-35 -16 -53 -38 -129 -157 -112 -177 -117 -190 -86 -215
20 -16 40 -19 137 -19 85 0 114 -3 114 -12 0 -7 -18 -40 -40 -73 -22 -33 -40
-64 -40 -68 0 -15 127 -137 143 -137 8 0 26 15 39 33 57 76 408 649 403 658
-4 5 -112 9 -253 9 -219 0 -252 -3 -288 -19z m266 -34 c0 -15 -177 -299 -194
-309 -16 -11 -56 -10 -56 2 0 11 148 253 180 293 22 28 70 38 70 14z"/>
<path d="M3168 3800 c-23 -14 -228 -345 -228 -368 0 -11 7 -23 16 -26 9 -3
120 -6 247 -6 201 0 237 2 267 18 27 13 57 53 142 187 59 94 108 178 108 188
0 15 -12 17 -108 17 -71 0 -114 -4 -124 -12 -9 -7 -60 -83 -113 -168 -53 -85
-104 -163 -112 -172 -18 -20 -63 -24 -63 -6 0 6 43 80 96 165 53 85 97 162 98
171 1 15 -12 17 -104 19 -58 2 -112 -2 -122 -7z"/>
<path d="M3855 3795 c-42 -15 -129 -99 -122 -119 2 -7 43 -12 108 -14 108 -3
144 6 154 38 10 32 53 70 80 70 14 0 25 -4 25 -10 0 -18 -70 -119 -89 -130
-11 -5 -80 -10 -155 -10 -129 0 -136 -1 -164 -25 -42 -35 -92 -116 -92 -149 0
-19 7 -29 26 -36 39 -15 486 -13 506 3 20 14 183 275 193 307 12 37 -2 67 -36
79 -48 17 -384 14 -434 -4z m123 -226 c4 -21 -70 -123 -91 -127 -45 -9 -48 6
-10 69 43 72 93 100 101 58z"/>
<path d="M4788 3799 c-23 -13 -250 -378 -243 -390 4 -5 54 -9 111 -9 102 0
106 1 133 28 39 39 234 360 226 372 -8 13 -204 13 -227 -1z"/>
<path d="M5503 3783 c-37 -40 -203 -315 -203 -335 0 -36 38 -48 158 -48 102 0
113 -2 110 -17 -8 -43 12 -43 -1369 -43 l-1316 0 -20 -22 c-24 -27 -123 -186
-123 -198 0 -17 230 -20 1543 -18 l1359 3 18 22 c51 64 411 655 406 668 -4 12
-25 15 -98 15 -51 0 -103 -3 -115 -6 -15 -4 -53 -55 -119 -163 -54 -86 -106
-166 -117 -178 -21 -24 -67 -32 -67 -12 0 7 45 85 101 175 55 90 98 168 94
174 -4 6 -51 10 -112 10 -102 0 -106 -1 -130 -27z m-2006 -507 c-3 -11 -11
-47 -17 -78 -9 -47 -15 -58 -31 -58 -12 0 -19 7 -19 20 0 15 -7 20 -28 20 -16
0 -37 -9 -47 -20 -10 -11 -28 -20 -39 -20 -16 1 -1 20 68 85 87 82 124 99 113
51z m1147 28 c19 -7 21 -30 3 -37 -7 -3 -25 -3 -39 0 -35 7 -45 -14 -14 -29
35 -15 33 -41 -5 -72 -32 -27 -81 -34 -109 -16 -24 16 15 43 40 28 18 -12 50
-5 50 10 0 5 -11 14 -25 20 -14 6 -25 18 -25 25 0 17 38 53 70 66 31 12 35 12
54 5z m266 -3 c0 -19 -101 -161 -115 -161 -19 0 -19 9 0 34 21 28 19 36 -11
34 -16 -2 -36 -15 -51 -35 -23 -29 -53 -44 -53 -26 0 4 21 40 48 80 30 47 54
73 66 73 17 0 17 -1 2 -25 -22 -33 -21 -35 13 -35 22 0 34 7 47 30 10 16 25
31 33 33 9 3 17 5 19 6 1 0 2 -3 2 -8z m225 -7 c45 -45 -58 -158 -139 -152
-54 4 -67 27 -41 74 37 69 143 115 180 78z m-1845 -12 c0 -11 -9 -27 -19 -36
-11 -10 -21 -30 -23 -44 -4 -38 -54 -64 -117 -60 l-51 3 50 78 49 77 56 0 c47
0 55 -3 55 -18z m476 3 c8 -20 -21 -63 -52 -77 -17 -8 -24 -19 -24 -40 0 -21
-5 -28 -20 -28 -15 0 -20 7 -20 25 0 15 -6 25 -14 25 -7 0 -21 -11 -30 -25
-14 -22 -46 -35 -46 -20 0 3 21 39 48 80 l47 75 53 0 c38 0 54 -4 58 -15z
m231 -2 c3 -7 -6 -23 -19 -36 -13 -13 -22 -30 -20 -39 2 -8 -11 -27 -28 -42
-26 -21 -42 -26 -87 -26 -30 0 -53 4 -51 8 2 5 23 41 48 80 l45 73 54 -3 c32
-2 56 -8 58 -15z m233 3 c-6 -8 -32 -16 -58 -18 -55 -4 -69 -25 -18 -30 48 -4
34 -26 -19 -29 -37 -3 -54 -13 -55 -31 0 -5 19 -8 41 -8 36 0 40 -2 29 -15
-13 -15 -130 -23 -130 -8 0 4 21 40 48 80 l47 73 64 0 c54 0 62 -2 51 -14z
m216 -1 c8 -20 -21 -63 -52 -77 -17 -8 -24 -19 -24 -40 0 -21 -5 -28 -20 -28
-15 0 -20 7 -20 25 0 15 -6 25 -15 25 -8 0 -22 -11 -31 -25 -15 -22 -44 -35
-44 -19 0 4 21 40 46 80 l46 74 54 0 c39 0 56 -4 60 -15z m930 1 c14 -35 -55
-96 -108 -96 -18 0 -33 -8 -44 -25 -15 -22 -44 -35 -44 -19 0 4 21 40 47 80
l46 74 49 0 c33 0 50 -5 54 -14z"/>
<path d="M3425 3230 c-17 -18 -17 -20 -1 -20 9 0 19 7 23 15 9 25 -2 27 -22 5z"/>
<path d="M5021 3244 c-54 -45 -33 -91 28 -60 32 17 51 43 51 70 0 25 -45 19
-79 -10z"/>
<path d="M3186 3255 c-4 -11 1 -15 18 -15 13 0 29 7 36 15 11 13 8 15 -18 15
-17 0 -32 -6 -36 -15z"/>
<path d="M3152 3198 c-18 -18 -14 -28 12 -28 25 0 51 22 39 33 -10 11 -38 8
-51 -5z"/>
<path d="M3660 3249 c-11 -19 -9 -20 22 -17 22 2 34 9 36 21 5 26 -44 23 -58
-4z"/>
<path d="M3897 3263 c-15 -14 -6 -24 20 -21 34 4 43 28 11 28 -14 0 -28 -3
-31 -7z"/>
<path d="M3855 3190 c-18 -19 -17 -20 4 -20 29 0 63 19 56 31 -10 15 -41 10
-60 -11z"/>
<path d="M4340 3250 c-9 -17 -8 -20 9 -20 30 0 51 11 51 26 0 22 -48 17 -60
-6z"/>
<path d="M5280 3250 c-16 -29 -4 -38 27 -20 33 18 35 34 6 38 -14 2 -26 -4
-33 -18z"/>
<path d="M3448 2965 c-27 -41 -48 -77 -48 -80 0 -12 123 0 128 13 2 8 -9 12
-38 12 -36 0 -40 2 -31 18 7 14 18 18 41 14 29 -4 60 11 60 29 0 5 -14 9 -31
9 -50 0 -29 24 26 30 72 7 71 30 -2 30 l-58 0 -47 -75z"/>
<path d="M3661 3014 c-38 -31 -39 -51 -6 -66 37 -17 24 -33 -26 -33 -32 0 -44
-4 -44 -15 0 -11 13 -16 43 -18 36 -3 47 1 72 27 37 36 37 48 5 63 -35 16 -26
33 18 33 40 1 53 8 42 24 -12 21 -72 12 -104 -15z"/>
<path d="M3827 3033 c-12 -12 -7 -22 13 -25 17 -3 16 -9 -21 -65 -32 -52 -36
-63 -22 -63 11 0 35 26 60 65 32 49 49 64 69 67 15 2 29 9 32 16 3 9 -14 12
-60 12 -36 0 -68 -3 -71 -7z"/>
<path d="M4196 3024 c-19 -11 -25 -19 -18 -26 6 -6 17 -5 30 3 12 7 24 10 28
7 14 -15 -7 -36 -70 -69 -89 -46 -93 -61 -14 -57 64 3 92 24 41 30 l-28 4 35
16 c46 21 94 72 87 92 -8 20 -53 20 -91 0z"/>
<path d="M4375 3021 c-106 -64 -114 -179 -9 -132 63 28 119 108 99 140 -10 17
-57 13 -90 -8z m50 -21 c14 -22 -45 -89 -77 -90 -27 0 -22 34 11 69 30 32 55
39 66 21z"/>
<path d="M4544 3024 c-14 -11 -15 -17 -6 -21 12 -5 6 -18 -46 -100 -13 -20
-12 -23 1 -23 15 0 75 78 106 138 11 20 9 22 -12 22 -13 0 -32 -7 -43 -16z"/>
<path d="M4656 3000 c-14 -22 -26 -42 -26 -45 0 -3 14 -5 30 -5 17 0 30 -4 30
-9 0 -19 -31 -33 -59 -28 -19 4 -33 1 -41 -8 -17 -20 9 -29 58 -22 65 11 115
97 56 97 -42 0 -22 25 23 28 25 2 44 9 47 18 4 11 -5 14 -43 14 -45 0 -50 -3
-75 -40z"/>
<path d="M3227 2963 c-16 -16 -5 -33 21 -33 27 0 52 15 52 32 0 10 -64 11 -73
1z"/>
<path d="M4876 2954 c-9 -23 -8 -24 22 -24 27 0 52 15 52 32 0 16 -68 8 -74
-8z"/>
<path d="M3924 2899 c-19 -21 -19 -21 6 -18 14 2 26 12 28 22 5 23 -11 22 -34
-4z"/>
</g>
</svg>
