<?xml version="1.0" standalone="no"?>
<!DOCTYPE svg PUBLIC "-//W3C//DTD SVG 20010904//EN"
 "http://www.w3.org/TR/2001/REC-SVG-20010904/DTD/svg10.dtd">
<svg version="1.0" xmlns="http://www.w3.org/2000/svg"
 width="508.000000pt" height="491.000000pt" viewBox="0 0 508.000000 491.000000"
 preserveAspectRatio="xMidYMid meet">

<g transform="translate(0.000000,491.000000) scale(0.100000,-0.100000)"
fill="#000000" stroke="none">
<path d="M1755 2985 l-147 -155 -382 0 -381 0 27 -23 c15 -12 126 -103 247
-202 121 -99 219 -183 218 -187 -1 -4 -108 -161 -237 -349 -129 -188 -239
-349 -244 -357 -10 -17 -13 -19 99 53 116 75 628 401 642 409 7 3 67 -17 135
-45 68 -28 139 -57 158 -65 28 -12 9 11 -98 117 -121 121 -135 131 -156 121
-12 -5 -118 -71 -235 -147 -117 -75 -214 -135 -216 -133 -2 2 63 101 145 221
83 119 150 220 150 224 -1 5 -66 61 -145 126 -80 65 -145 122 -145 128 0 5 95
9 233 9 l233 0 126 205 c69 113 125 205 123 205 -2 0 -69 -70 -150 -155z"/>
<path d="M2530 3115 c-112 -30 -113 -30 -134 -70 -11 -20 -27 -35 -37 -35 -22
0 -36 -20 -20 -29 7 -5 -16 -49 -63 -126 -41 -66 -72 -123 -69 -127 7 -13 138
-9 156 5 10 6 50 64 90 127 69 110 74 115 111 120 49 6 59 27 16 32 l-31 3 37
58 c20 32 35 59 33 61 -2 2 -42 -7 -89 -19z"/>
<path d="M1923 3000 c-13 -5 -39 -35 -59 -66 -35 -54 -36 -58 -18 -71 11 -8
47 -13 101 -13 46 0 83 -3 83 -7 0 -3 -11 -26 -25 -50 -19 -32 -32 -43 -50
-43 -29 0 -30 7 -10 34 8 11 15 23 15 28 0 4 -38 8 -84 8 l-85 0 -25 -42 c-14
-23 -23 -45 -20 -50 9 -14 346 -9 374 5 30 15 92 104 88 126 -3 13 -21 17
-101 19 -53 1 -97 6 -97 10 1 20 59 87 78 90 26 4 28 -10 6 -43 l-16 -25 85 0
86 0 26 37 c43 64 44 63 -152 62 -98 0 -188 -4 -200 -9z"/>
<path d="M2692 3003 c-25 -5 -92 -64 -92 -82 0 -7 28 -11 84 -11 l84 0 21 35
c15 25 27 35 46 35 31 0 31 -5 -3 -55 l-28 -40 -104 -6 c-58 -3 -113 -9 -122
-13 -24 -11 -68 -82 -68 -110 0 -32 18 -36 197 -36 144 0 153 1 176 23 31 28
137 199 137 220 0 37 -38 47 -175 46 -71 -1 -140 -4 -153 -6z m77 -175 c-26
-50 -51 -78 -70 -78 -25 0 -24 12 6 60 19 29 32 40 50 40 23 0 25 -2 14 -22z"/>
<path d="M3114 3002 c-18 -11 -173 -265 -168 -274 7 -11 132 -10 154 2 10 5
46 56 81 112 75 123 87 138 111 138 25 0 23 -12 -11 -67 -16 -26 -27 -51 -25
-55 7 -11 132 -10 154 2 19 10 90 119 90 139 0 13 -367 16 -386 3z"/>
<path d="M3228 2808 c-14 -12 -248 -382 -248 -393 0 -3 38 -5 84 -5 l83 0 119
192 c65 106 120 198 122 205 5 18 -138 18 -160 1z"/>
<path d="M3451 2801 c-11 -11 -27 -34 -36 -50 l-16 -31 85 0 85 0 26 43 c14
24 25 47 25 50 0 4 -34 7 -75 7 -61 0 -79 -4 -94 -19z"/>
<path d="M3751 2791 c-85 -24 -96 -29 -117 -62 -12 -20 -33 -39 -45 -42 -17
-5 -20 -9 -12 -19 8 -10 -9 -44 -63 -131 -41 -65 -74 -120 -74 -123 0 -2 38
-4 84 -4 l84 0 79 128 79 127 42 3 c48 4 58 22 12 22 -16 0 -30 3 -30 6 0 4
14 29 31 56 16 28 29 53 27 57 -2 4 -45 -4 -97 -18z"/>
<path d="M1790 2677 c-25 -12 -93 -105 -139 -191 -37 -66 -27 -76 72 -76 46 0
87 -3 90 -7 4 -3 -7 -31 -24 -61 l-32 -54 47 -46 c36 -37 50 -45 62 -37 21 14
304 467 298 477 -9 14 -346 9 -374 -5z m185 -17 c6 -10 -88 -171 -123 -212
-16 -19 -52 -25 -52 -8 0 5 25 51 56 102 70 115 102 146 119 118z"/>
<path d="M2228 2673 c-31 -35 -148 -231 -148 -247 0 -14 21 -16 184 -16 l184
0 25 29 c32 39 147 225 147 240 0 7 -25 11 -73 11 -88 0 -82 4 -176 -147 -55
-90 -71 -109 -94 -111 -15 -2 -27 0 -26 5 0 4 33 60 73 123 41 63 72 118 69
123 -2 4 -37 7 -77 7 -57 0 -76 -4 -88 -17z"/>
<path d="M2720 2679 c-32 -13 -80 -59 -80 -76 0 -10 21 -13 80 -13 l80 0 22
35 c46 70 86 52 44 -19 l-27 -46 -97 0 c-115 0 -136 -9 -175 -72 -48 -77 -45
-78 167 -78 l184 0 66 107 c73 118 80 148 40 163 -33 13 -271 12 -304 -1z m86
-153 c9 -24 -45 -96 -72 -96 -29 0 -30 6 -3 50 33 55 64 74 75 46z"/>
<path d="M3383 2684 c-12 -5 -173 -255 -173 -268 0 -3 36 -6 79 -6 79 0 80 1
104 33 30 40 147 232 147 240 0 8 -139 8 -157 1z"/>
<path d="M3883 2670 c-37 -40 -145 -230 -139 -245 4 -12 24 -15 90 -15 86 0
108 -9 86 -35 -11 -13 -141 -15 -944 -15 -512 0 -937 -4 -944 -9 -14 -8 -92
-131 -92 -143 0 -10 2031 -10 2046 0 14 9 294 458 294 472 0 12 -139 14 -158
2 -7 -5 -45 -62 -86 -128 -60 -99 -77 -120 -99 -122 -15 -2 -27 0 -27 4 0 4
32 58 70 120 39 61 70 117 70 123 0 7 -27 11 -75 11 -61 0 -77 -3 -92 -20z
m-1565 -357 c2 -13 -1 -23 -7 -23 -6 0 -11 -8 -11 -18 0 -34 -34 -53 -84 -50
l-46 3 38 58 c35 54 39 57 72 55 28 -2 36 -8 38 -25z m147 -19 c-3 -26 -9 -53
-12 -60 -6 -16 -33 -19 -33 -4 0 6 -11 10 -24 10 -14 0 -28 -4 -31 -10 -3 -5
-14 -10 -23 -10 -10 0 5 21 43 60 74 75 90 77 80 14z m193 19 c2 -14 -5 -27
-22 -39 -14 -9 -26 -25 -26 -35 0 -12 -7 -19 -20 -19 -11 0 -20 7 -20 15 0 8
-4 15 -9 15 -5 0 -11 -7 -15 -15 -5 -14 -36 -22 -36 -10 0 3 17 30 37 61 34
51 39 55 72 52 28 -2 37 -8 39 -25z m158 12 c4 -8 0 -22 -7 -31 -7 -9 -14 -23
-16 -32 -3 -26 -34 -42 -81 -42 l-44 0 23 38 c50 82 50 82 85 82 22 0 37 -6
40 -15z m172 3 c-3 -7 -18 -14 -34 -16 -40 -5 -56 -22 -20 -22 24 0 27 -2 16
-15 -7 -8 -27 -15 -44 -16 l-31 -1 28 -10 c42 -15 32 -28 -23 -28 l-50 0 27
43 c45 71 53 77 95 77 27 0 38 -4 36 -12z m150 -10 c2 -10 -8 -28 -22 -41 -14
-14 -26 -32 -26 -41 0 -9 -8 -16 -20 -16 -11 0 -20 7 -20 15 0 8 -4 15 -9 15
-5 0 -11 -7 -15 -15 -5 -13 -36 -22 -36 -10 0 2 16 30 36 60 33 53 37 56 72
53 25 -2 38 -8 40 -20z m147 2 c0 -10 -8 -14 -27 -12 -32 3 -36 -5 -11 -23 20
-15 12 -39 -22 -61 -21 -14 -31 -15 -51 -5 -30 13 -21 35 11 27 27 -7 45 11
21 20 -24 9 -19 30 11 54 30 23 68 23 68 0z m101 -5 c-9 -34 16 -33 42 2 11
14 24 23 30 19 15 -9 -55 -116 -75 -116 -11 0 -11 4 -3 20 9 17 8 20 -9 20
-11 0 -25 -9 -31 -20 -9 -17 -40 -29 -40 -15 0 12 74 115 82 115 6 0 7 -11 4
-25z m242 -2 c8 -52 -77 -116 -124 -94 -28 12 -30 28 -8 60 40 57 126 79 132
34z m156 21 c9 -3 16 -12 16 -18 0 -20 -39 -55 -68 -62 -15 -4 -35 -13 -44
-21 -36 -31 -37 -6 -2 50 36 57 55 67 98 51z"/>
<path d="M2255 2300 c-3 -5 1 -10 9 -10 8 0 18 5 21 10 3 6 -1 10 -9 10 -8 0
-18 -4 -21 -10z"/>
<path d="M2220 2250 c0 -5 6 -10 14 -10 8 0 18 5 21 10 3 6 -3 10 -14 10 -12
0 -21 -4 -21 -10z"/>
<path d="M2415 2280 c-3 -5 -1 -10 4 -10 6 0 11 5 11 10 0 6 -2 10 -4 10 -3 0
-8 -4 -11 -10z"/>
<path d="M2586 2294 c-4 -11 -1 -14 11 -12 9 2 18 9 21 16 6 18 -25 15 -32 -4z"/>
<path d="M2750 2300 c0 -5 7 -10 15 -10 8 0 15 5 15 10 0 6 -7 10 -15 10 -8 0
-15 -4 -15 -10z"/>
<path d="M2720 2250 c0 -5 6 -10 14 -10 8 0 18 5 21 10 3 6 -3 10 -14 10 -12
0 -21 -4 -21 -10z"/>
<path d="M3065 2299 c-4 -6 -4 -13 -1 -16 8 -8 36 5 36 17 0 13 -27 13 -35 -1z"/>
<path d="M3541 2286 c-22 -23 -22 -46 0 -46 16 0 61 49 54 60 -10 17 -30 11
-54 -14z"/>
<path d="M3726 2294 c-4 -11 -1 -14 11 -12 9 2 18 9 21 16 6 18 -25 15 -32 -4z"/>
<path d="M2444 2108 c-15 -24 -32 -49 -37 -55 -7 -10 2 -13 39 -12 29 1 38 4
22 6 -38 6 -37 33 1 33 17 0 33 5 36 10 4 6 -5 10 -21 10 -22 0 -25 2 -14 15
7 8 25 15 41 15 16 0 29 5 29 10 0 6 -15 10 -34 10 -28 0 -38 -7 -62 -42z"/>
<path d="M2585 2127 c-28 -24 -28 -47 1 -47 9 0 14 -6 11 -12 -2 -8 -17 -12
-36 -10 -32 2 -43 -11 -16 -22 22 -8 62 10 75 34 10 18 8 22 -10 27 -29 8 -19
28 13 28 32 0 41 19 11 23 -12 2 -34 -8 -49 -21z"/>
<path d="M2706 2141 c-4 -5 -1 -11 6 -13 8 -3 5 -16 -10 -42 -13 -21 -20 -41
-17 -44 3 -3 6 -3 8 -1 2 2 15 23 30 47 17 26 35 42 47 42 11 0 20 5 20 10 0
13 -77 13 -84 1z"/>
<path d="M2973 2140 c-27 -11 -30 -21 -5 -17 36 5 25 -19 -20 -43 -66 -36 -68
-40 -17 -39 24 1 36 3 27 6 -20 5 -24 23 -5 23 24 0 71 46 64 63 -7 19 -12 20
-44 7z"/>
<path d="M3080 2128 c-39 -26 -61 -71 -43 -89 26 -26 119 48 111 89 -5 25 -30
25 -68 0z m43 -4 c9 -9 -23 -62 -41 -69 -16 -6 -32 2 -32 16 0 12 46 59 58 59
5 0 12 -3 15 -6z"/>
<path d="M3217 2143 c-12 -3 -16 -10 -13 -20 3 -8 -3 -28 -15 -44 -12 -17 -18
-33 -15 -36 7 -7 4 -10 44 49 41 61 41 62 -1 51z"/>
<path d="M3290 2123 l-22 -28 21 -3 c12 -2 21 -7 21 -11 0 -18 -30 -32 -51
-26 -16 5 -20 3 -17 -6 8 -22 51 -12 76 18 l24 26 -21 12 c-25 13 -18 25 15
25 13 0 26 5 29 10 4 6 -6 10 -24 10 -20 0 -36 -8 -51 -27z"/>
<path d="M2275 2080 c-3 -5 3 -10 14 -10 11 0 23 5 26 10 3 6 -3 10 -14 10
-11 0 -23 -4 -26 -10z"/>
<path d="M3440 2082 c0 -11 39 -12 45 -1 4 5 -5 9 -19 9 -14 0 -26 -4 -26 -8z"/>
<path d="M2775 2050 c-3 -5 -1 -10 4 -10 6 0 11 5 11 10 0 6 -2 10 -4 10 -3 0
-8 -4 -11 -10z"/>
</g>
</svg>
